<svg width="698" height="66" viewBox="0 0 698 66" fill="none" xmlns="http://www.w3.org/2000/svg">
<path d="M0.5 54H5.5L22 5.5H44L60.5 54V26.5L69.5 18H84.5V10.5H81.5V0H101.5L110 9V18H139.5V29H136.5L141 44L146.5 29H143V18H162.5V22L167 18H196L199 20.5V18H218.5L221.5 20.5L225 18H243L250 25H253.5V18H250V7H269.5L277 14.5V22H282V18H301L309 26.5V18H325.5L332 25V18H352L355 20.5L358 18H370L374.5 22L378 18H408L416.5 26.5V42.5L410 48.2353L417.5 55L408 65H378L372 58L370 56.5V34.5L366 31.5H363.5L361.5 34.5V54H366V65H319L316 62.5L313.5 65H294.5L288 58H286L280 65H262L256.5 59V65H236.5L231 60.5V65H199V60.5L196 65H165L159 58V33.5L159.5 30H157L146.5 65H124L112.5 30H110V54.5H114V65H94L92 62.5L89.5 65H30.5V54.5H35L32 46H22L19.5 54H24V65H0.5V54Z" fill="black"/>
<path d="M481 16.5H476V5H523.5L532 13.5V25L538.5 17.5H568.5L575 25L583 17.5H610.5L616 22.5V17.5H636L639 20.5L641.5 17.5H659L662 20.5L665 17.5H684L691.5 25V53.5H697.5V65.5H580L575 60L570 65.5H476V54.5H481V16.5Z" fill="black"/>
<path d="M61.3185 58.44V61H34.8225V58.44H41.6705L36.2945 41.8H18.5665L13.1265 58.44H19.6545V61H5.7025V58.44H10.0545L25.8625 9.8H41.1585L56.9665 58.44H61.3185ZM35.4625 39.24L27.3985 14.536L19.3985 39.24H35.4625Z" fill="white"/>
<path d="M110.002 58.44V61H96.1135L91.6335 56.456L87.0895 61H71.0895L65.1375 55.048V28.552L71.0895 22.6H86.7055L90.1615 26.056V7.23999H85.0415V4.67999H98.9295L104.882 10.632V58.44H110.002ZM90.1615 53.96V30.024L85.2975 25.16H80.1775V58.44H85.6815L90.1615 53.96Z" fill="white"/>
<path d="M158.561 25.16H154.209L142.561 61H127.905L116.257 25.16H111.905V22.6H135.521V25.16H130.913L141.025 56.264L151.137 25.16H146.529V22.6H158.561V25.16Z" fill="white"/>
<path d="M168.964 61L163.012 55.048V28.552L168.964 22.6H193.54L199.492 28.552V39.048L193.54 45H177.732V58.44H192.452L197.829 53.064L199.812 55.048L193.861 61H168.964ZM177.732 25.16V42.44H184.773V25.16H177.732Z" fill="white"/>
<path d="M251.982 58.44V61H237.454L232.143 55.688V25.16H227.663L223.182 29.64V58.44H226.383V61H203.342V58.44H208.462V25.16H203.342V22.6H217.23L221.775 27.08L226.255 22.6H240.911L246.863 28.552V58.44H251.982Z" fill="white"/>
<path d="M283.01 55.048L277.058 61H264.322L258.37 55.048V14.28H253.89V11.72H266.818L272.13 17.032V26.44H281.09V29H272.13V58.44H275.65L281.026 53.064L283.01 55.048Z" fill="white"/>
<path d="M333.912 58.44V61H320.024L315.544 56.456L311 61H296.664L290.713 55.048V25.16H285.593V22.6H299.161L305.112 28.552V58.44H309.593L314.073 53.96V22.6H322.841L328.792 28.552V58.44H333.912Z" fill="white"/>
<path d="M372.307 27.272L370.323 29.256L366.227 25.16H360.787L356.307 29.64V58.44H361.427V61H347.539L341.588 55.048V25.16H336.468V22.6H350.356L354.899 27.08L359.38 22.6H367.635L372.307 27.272Z" fill="white"/>
<path d="M381.464 61L375.513 55.048V28.552L381.464 22.6H406.041L411.992 28.552V39.048L406.041 45H390.232V58.44H404.953L410.328 53.064L412.312 55.048L406.36 61H381.464ZM390.232 25.16V42.44H397.273V25.16H390.232Z" fill="white"/>
<path d="M506.722 61H481.763V58.44H486.883V12.36H481.763V9.8H520.802L526.755 15.752V30.088L521.443 35.4L526.755 40.712V58.44H531.875V61H517.346L512.034 55.688V36.68H501.602V58.44H506.722V61ZM501.602 12.36V34.12H512.034V12.36H501.602Z" fill="white"/>
<path d="M571.811 29.192V54.408L565.219 61H541.667L535.075 54.408V29.192L541.667 22.6H565.219L571.811 29.192ZM550.435 25.16V58.44H556.451V25.16H550.435Z" fill="white"/>
<path d="M614.936 29.192V54.408L608.344 61H584.792L578.2 54.408V29.192L584.792 22.6H608.344L614.936 29.192ZM593.56 25.16V58.44H599.576V25.16H593.56Z" fill="white"/>
<path d="M692.045 58.44V61H677.837L672.525 55.688V25.16H668.045L663.565 29.64V58.44H667.405V61H648.845V25.16H644.365L639.885 29.64V58.44H643.725V61H620.045V58.44H625.165V25.16H620.045V22.6H633.933L638.477 27.08L642.957 22.6H657.613L662.157 27.08L666.637 22.6H680.973L686.925 28.552V58.44H692.045Z" fill="white"/>
</svg>
